<svg width="160" height="17" viewBox="0 0 160 17" fill="none" xmlns="http://www.w3.org/2000/svg">
<path d="M160.001 0.596191H155.212L149.476 7.13138V0.596191H145.455L145.475 16.6834H149.476V10.5702L154.916 16.6834H160.001L152.669 8.74071L160.001 0.596191Z" fill="white"/>
<path d="M139.358 6.95462L135.76 6.53885C133.651 6.30084 133.13 5.76556 133.13 5.03243C133.13 4.21997 134.213 3.48685 136.321 3.48685C138.352 3.48685 139.416 4.26014 139.609 5.42912H143.477C143.281 2.07986 140.536 0 136.533 0C131.776 0 129.377 1.94127 129.377 5.36887C129.377 8.16277 130.963 9.47134 134.251 9.82786L137.907 10.2235C139.3 10.3822 139.938 10.9376 139.938 11.6506C139.938 12.4631 139.01 13.1962 136.766 13.1962C134.174 13.1962 133.13 12.5223 132.955 11.1746H129.164C129.339 14.8211 131.659 16.6831 136.63 16.6831C141.175 16.6831 143.71 14.6424 143.71 11.5713C143.71 8.89589 142.201 7.29105 139.358 6.95462Z" fill="white"/>
<path d="M114.618 16.6834H127.418V13.2049H118.673V10.2889H125.709V6.78994H118.673V4.07476H127.418V0.596191H114.618V16.6834Z" fill="white"/>
<path d="M105.098 0.596191H97.7461V16.6834H105.098C110.739 16.6834 112.292 14.5319 112.292 8.51852C112.292 2.86801 110.798 0.596191 105.098 0.596191ZM104.936 13.2059H101.748V4.07476H104.936C107.453 4.07476 108.199 4.77904 108.199 8.51852C108.203 11.937 107.358 13.2059 104.936 13.2059Z" fill="white"/>
<path d="M87.2637 0C81.5238 0 78.5459 3.5461 78.5459 8.32144C78.5459 13.1169 81.5238 16.6831 87.2637 16.6831C93.0226 16.6831 96.0005 13.1169 96.0005 8.32144C96.0005 3.5461 93.0226 0 87.2637 0ZM87.2637 13.1169C84.2858 13.1169 82.6484 11.2941 82.6484 8.32144C82.6484 5.40904 84.2858 3.56619 87.2637 3.56619C90.2626 3.56619 91.879 5.40904 91.879 8.32144C91.879 11.2941 90.2616 13.1169 87.2637 13.1169Z" fill="white"/>
<path d="M64 4.07476H69.0102V16.6834H72.9721V4.07476H77.9636V0.596191H64V4.07476Z" fill="white"/>
<path d="M58.173 10.2875C58.173 12.328 56.892 13.1524 54.7104 13.1524C52.5896 13.1524 51.2092 12.2892 51.2092 10.2875V0.596191H47.127V10.739C47.127 15.2714 51.2488 16.6834 54.7104 16.6834C58.1527 16.6834 62.2542 15.2714 62.2542 10.739V0.596191H58.173V10.2875Z" fill="white"/>
<path d="M35.5728 0.596191L29.6729 16.6834H33.7279L34.7575 13.6666H41.3441L42.3571 16.6834H46.5456L40.5736 0.596191H35.5728ZM35.9244 10.2481L38.0781 3.94226L40.1957 10.2502L35.9244 10.2481Z" fill="white"/>
<path d="M0.121899 16.6834L14.0164 7.72393H21.2242C21.2795 7.72393 21.3343 7.73525 21.3854 7.75723C21.4366 7.77921 21.483 7.81143 21.5221 7.85204C21.5611 7.89265 21.5921 7.94085 21.6132 7.99388C21.6343 8.04692 21.6451 8.10374 21.645 8.1611C21.6507 8.23553 21.6351 8.31005 21.6001 8.37531C21.5651 8.44057 21.5123 8.49368 21.4483 8.52796L14.624 12.7693C14.1806 13.0444 14.0253 13.5967 14.0253 14.0105L14.0184 16.6834H22.6909V1.14902C22.6911 1.07452 22.6768 1.00075 22.6487 0.932166C22.6206 0.863584 22.5794 0.801611 22.5276 0.74999C22.4758 0.698369 22.4144 0.658171 22.3472 0.631822C22.28 0.605474 22.2083 0.593522 22.1365 0.59669H13.8611L0 9.51746V16.6834H0.121899Z" fill="white"/>
</svg>
